<svg width="18" height="18" viewBox="0 0 18 18" fill="none" xmlns="http://www.w3.org/2000/svg">
<path d="M12.5557 6.36823L9.97682 8.94727L12.5557 11.5263C12.8304 11.8008 12.8304 12.246 12.5557 12.5206C12.4185 12.6579 12.2385 12.7266 12.0586 12.7266C11.8787 12.7266 11.6987 12.6579 11.5615 12.5206L8.98242 9.94167L6.40338 12.5206C6.26619 12.6579 6.08615 12.7266 5.90625 12.7266C5.72635 12.7266 5.54631 12.6579 5.40912 12.5206C5.13446 12.246 5.13446 11.8008 5.40912 11.5263L7.98802 8.94727L5.40912 6.36823C5.13446 6.0937 5.13446 5.64848 5.40912 5.37396C5.68364 5.0993 6.12886 5.0993 6.40338 5.37396L8.98242 7.95287L11.5615 5.37396C11.836 5.0993 12.2812 5.0993 12.5557 5.37396C12.8304 5.64848 12.8304 6.0937 12.5557 6.36823ZM15.364 2.63603C13.6641 0.936172 11.4039 0 9 0C6.59605 0 4.33589 0.936172 2.63603 2.63603C0.936172 4.33589 0 6.59605 0 9C0 11.4039 0.936172 13.6641 2.63603 15.364C4.33589 17.0638 6.59605 18 9 18C10.6458 18 12.2561 17.5515 13.6568 16.7029C13.989 16.5017 14.0952 16.0694 13.894 15.7374C13.6928 15.4052 13.2604 15.299 12.9283 15.5002C11.7473 16.2155 10.3888 16.5938 9 16.5938C4.81284 16.5938 1.40625 13.1872 1.40625 9C1.40625 4.81284 4.81284 1.40625 9 1.40625C13.1872 1.40625 16.5938 4.81284 16.5938 9C16.5938 10.4973 16.1485 11.9546 15.3062 13.2148C15.0903 13.5375 15.1771 13.9742 15.4999 14.1901C15.8226 14.4058 16.2594 14.3192 16.4752 13.9963C17.4727 12.5042 18 10.7765 18 9C18 6.59605 17.0638 4.33589 15.364 2.63603Z" fill="white"/>
</svg>
